<svg xmlns="http://www.w3.org/2000/svg" xmlns:xlink="http://www.w3.org/1999/xlink" version="1.1" width="50" height="50" viewBox="0 0 50 50" xml:space="preserve">
<desc>Created with Fabric.js 3.5.0</desc>
<defs>
</defs>
<rect x="0" y="0" width="100%" height="100%" fill="rgba(51,51,51,0)"/>
<g transform="matrix(2.0833 0 0 3.1189 24.9996 25.0003)" id="297999">
<path style="stroke: none; stroke-width: 0; stroke-dasharray: none; stroke-linecap: butt; stroke-dashoffset: 0; stroke-linejoin: miter; stroke-miterlimit: 4; is-custom-font: none; font-file-url: none; fill: rgb(60,120,187); fill-rule: nonzero; opacity: 1;" vector-effect="non-scaling-stroke" transform=" translate(-12, -11.9997)" d="M 9.774 11.568 c 0.193 -1.322 0.168 -2.013 -1.768 -1.906 c -2.223 0.124 -4.476 0.265 -7.849 1.027 A 5.63 5.63 0 0 0 0 12 c 0 1.52 0.618 2.99 1.787 4.254 c 1.06 1.144 2.556 2.095 4.326 2.752 a 15.48 15.48 0 0 0 2.014 0.588 c 0.13 -0.527 0.959 -3.907 1.616 -7.823 l 0.03 -0.202 m 14.07 -0.88 c -3.372 -0.762 -5.624 -0.902 -7.846 -1.026 c -1.937 -0.107 -1.962 0.584 -1.768 1.906 l 0.046 0.298 c 0.65 3.848 1.458 7.16 1.598 7.72 C 20.595 18.508 24 15.516 24 12 c 0 -0.443 -0.054 -0.88 -0.157 -1.311 m -0.491 -1.324 a 7.163 7.163 0 0 0 -1.14 -1.618 c -1.06 -1.144 -2.555 -2.095 -4.325 -2.752 c -1.784 -0.662 -3.82 -1.011 -5.887 -1.011 c -2.068 0 -4.103 0.35 -5.887 1.01 c -1.77 0.658 -3.266 1.61 -4.326 2.753 A 7.17 7.17 0 0 0 0.648 9.366 c 2.304 -0.557 6.245 -1.293 9.904 -1.37 c 0.353 -0.008 0.596 0.105 0.756 0.307 c 0.196 0.248 0.18 1.128 0.175 1.522 l -0.104 10.18 a 18.507 18.507 0 0 0 1.244 0 l -0.104 -10.18 c -0.005 -0.394 -0.02 -1.274 0.175 -1.522 c 0.16 -0.202 0.403 -0.315 0.756 -0.308 c 3.658 0.078 7.597 0.813 9.902 1.37 z" stroke-linecap="round"/>
</g>
</svg>