<svg xmlns="http://www.w3.org/2000/svg" xmlns:xlink="http://www.w3.org/1999/xlink" version="1.1" width="125" height="125" viewBox="0 0 125 125" xml:space="preserve">
<desc>Created with Fabric.js 3.5.0</desc>
<defs>
</defs>
<rect x="0" y="0" width="100%" height="100%" fill="rgba(255,255,255,0)"/>
<g transform="matrix(8.2382 0 0 8.4063 16.4764 16.8126)" id="Workspace">
<path style="stroke: rgb(255,255,255); stroke-width: 1; stroke-dasharray: none; stroke-linecap: round; stroke-dashoffset: 0; stroke-linejoin: round; stroke-miterlimit: 4; is-custom-font: none; font-file-url: none; fill: none; fill-rule: nonzero; opacity: 1;" transform=" translate(-6.5, -6.5)" d="M 8 5 H 6 A 1 1 0 0 0 5 6 V 8" stroke-linecap="round"/>
</g>
<g transform="matrix(8.2382 0 0 8.4063 107.0962 16.8126)" id="Workspace">
<path style="stroke: rgb(255,255,255); stroke-width: 1; stroke-dasharray: none; stroke-linecap: round; stroke-dashoffset: 0; stroke-linejoin: round; stroke-miterlimit: 4; is-custom-font: none; font-file-url: none; fill: none; fill-rule: nonzero; opacity: 1;" transform=" translate(-17.5, -6.5)" d="M 16 5 h 2 a 1 1 0 0 1 1 1 V 8" stroke-linecap="round"/>
</g>
<g transform="matrix(8.2382 0 0 8.4063 107.0962 109.2817)" id="Workspace">
<path style="stroke: rgb(255,255,255); stroke-width: 1; stroke-dasharray: none; stroke-linecap: round; stroke-dashoffset: 0; stroke-linejoin: round; stroke-miterlimit: 4; is-custom-font: none; font-file-url: none; fill: none; fill-rule: nonzero; opacity: 1;" transform=" translate(-17.5, -17.5)" d="M 19 16 v 2 a 1 1 0 0 1 -1 1 H 16" stroke-linecap="round"/>
</g>
<g transform="matrix(8.2382 0 0 8.4063 16.4764 109.2817)" id="Workspace">
<path style="stroke: rgb(255,255,255); stroke-width: 1; stroke-dasharray: none; stroke-linecap: round; stroke-dashoffset: 0; stroke-linejoin: round; stroke-miterlimit: 4; is-custom-font: none; font-file-url: none; fill: none; fill-rule: nonzero; opacity: 1;" transform=" translate(-6.5, -17.5)" d="M 8 19 H 6 a 1 1 0 0 1 -1 -1 V 16" stroke-linecap="round"/>
</g>
<g transform="matrix(8.2382 0 0 8.4063 61.7864 63.0314)" id="Workspace">
<path style="stroke: rgb(255,255,255); stroke-width: 1; stroke-dasharray: none; stroke-linecap: round; stroke-dashoffset: 0; stroke-linejoin: round; stroke-miterlimit: 4; is-custom-font: none; font-file-url: none; fill: none; fill-rule: nonzero; opacity: 1;" transform=" translate(-12, -11.9981)" d="M 12 9 a 5.75 5.75 0 0 0 -5 3 a 5.67 5.67 0 0 0 10 0 A 5.75 5.75 0 0 0 12 9 Z" stroke-linecap="round"/>
</g>
<g transform="matrix(8.2382 0 0 8.4063 61.7863 63.0472)" id="Workspace">
<circle style="stroke: rgb(255,255,255); stroke-width: 1; stroke-dasharray: none; stroke-linecap: round; stroke-dashoffset: 0; stroke-linejoin: round; stroke-miterlimit: 4; is-custom-font: none; font-file-url: none; fill: none; fill-rule: nonzero; opacity: 1;" cx="0" cy="0" r="1.5"/>
</g>
</svg>